<svg xmlns="http://www.w3.org/2000/svg" version="1.0" width="964.000000pt" height="992.000000pt" viewBox="0 0 964.000000 992.000000" preserveAspectRatio="xMidYMid meet">

<g transform="translate(0.000000,992.000000) scale(0.100000,-0.100000)" fill="#ffffff" stroke="none">
<path d="M4581 8850 c-80 -17 -181 -61 -244 -108 -75 -55 -147 -122 -147 -137 0 -17 60 -70 115 -101 75 -42 452 -265 605 -359 210 -128 549 -329 615 -366 33 -18 112 -66 175 -107 167 -108 190 -118 239 -104 48 15 105 70 123 120 16 46 16 196 -1 277 -13 61 -55 154 -92 204 -50 69 -281 210 -864 532 -234 129 -397 175 -524 149z" fill="#ffffff"/>
<path d="M3175 8798 c-113 -21 -269 -117 -350 -215 -113 -137 -163 -290 -152 -468 10 -161 66 -287 183 -414 177 -191 477 -251 733 -147 35 14 79 37 97 51 18 14 35 25 38 25 3 0 72 -39 153 -87 152 -89 197 -115 962 -553 463 -266 532 -313 569 -393 11 -23 30 -100 42 -172 12 -71 30 -161 41 -200 27 -100 25 -153 -9 -204 -15 -23 -88 -104 -161 -181 -121 -128 -143 -160 -107 -160 7 0 45 -16 83 -35 87 -44 190 -149 248 -253 22 -40 42 -72 45 -71 3 0 23 22 45 49 22 27 108 121 190 210 83 89 157 174 165 189 12 22 15 98 18 454 5 532 -4 612 -79 722 -55 81 -112 123 -344 250 -537 296 -775 433 -1265 726 -337 202 -317 189 -329 216 -6 13 -11 48 -11 77 0 157 -130 382 -277 479 -101 66 -147 87 -230 103 -83 16 -222 17 -298 2z m271 -229 c88 -26 141 -58 187 -108 87 -97 122 -186 121 -311 -1 -112 -33 -194 -110 -278 -96 -107 -196 -147 -345 -140 -79 4 -96 8 -174 47 -97 48 -146 100 -199 211 -29 60 -31 73 -31 170 0 98 2 109 32 170 101 207 310 303 519 239z" fill="#ffffff"/>
<path d="M6847 8470 c-125 -20 -257 -91 -363 -196 -103 -102 -164 -233 -184 -398 -12 -102 -1 -182 42 -298 42 -114 107 -202 208 -281 l79 -62 -5 -905 c-3 -536 -9 -926 -15 -957 -15 -75 -35 -97 -288 -318 -148 -129 -141 -126 -231 -110 -42 7 -143 29 -225 49 -83 20 -160 38 -173 41 -23 6 -23 6 -16 -82 12 -165 -22 -300 -100 -392 -28 -33 -34 -46 -24 -52 33 -18 539 -132 588 -133 58 0 89 16 675 354 219 126 289 191 338 312 21 53 21 57 22 1068 0 558 5 1032 9 1053 6 27 16 41 32 47 50 20 163 102 221 162 66 69 109 146 141 249 105 340 -86 710 -426 822 -91 30 -214 41 -305 27z m206 -235 c112 -29 200 -93 263 -191 49 -77 67 -150 62 -259 -5 -115 -35 -181 -123 -271 -133 -135 -321 -168 -494 -86 -178 84 -278 299 -227 489 64 240 289 378 519 318z" fill="#ffffff"/>
<path d="M2590 7537 c-25 -7 -101 -44 -170 -83 -69 -39 -156 -88 -195 -109 -141 -77 -532 -300 -595 -340 -150 -96 -254 -209 -288 -316 -32 -97 -33 -253 -1 -406 16 -80 19 -80 274 62 147 82 142 79 590 320 182 97 431 233 555 300 124 68 253 136 287 150 53 23 64 33 77 66 35 87 11 180 -61 237 -59 46 -193 109 -258 121 -75 14 -158 13 -215 -2z" fill="#ffffff"/>
<path d="M7689 7313 c-6 -17 -14 -273 -20 -663 -5 -349 -13 -774 -18 -945 -5 -177 -4 -323 1 -341 11 -42 68 -91 113 -100 76 -14 148 12 261 92 117 84 169 153 200 269 20 70 30 807 15 1055 -22 369 -82 473 -347 601 -142 69 -188 76 -205 32z" fill="#ffffff"/>
<path d="M3595 6876 c-59 -15 -119 -45 -247 -122 -281 -171 -1029 -594 -1343 -759 -60 -32 -157 -85 -214 -117 -57 -32 -106 -58 -110 -58 -3 0 -47 18 -98 40 -129 57 -223 74 -336 60 -379 -46 -648 -394 -587 -760 67 -409 493 -659 877 -515 178 67 339 234 397 411 17 52 38 246 30 269 -5 13 21 45 35 45 5 0 44 19 87 43 44 24 111 61 149 82 39 21 135 75 215 120 80 45 244 137 365 205 121 68 315 177 430 243 255 146 341 187 409 194 44 5 78 -4 256 -62 248 -82 303 -105 325 -139 10 -14 44 -119 77 -233 33 -114 61 -210 63 -212 2 -2 23 13 47 33 91 78 219 119 376 119 89 0 102 2 98 16 -103 342 -127 427 -141 483 -10 38 -26 75 -39 86 -22 21 -647 399 -777 470 -123 68 -231 86 -344 58z m-2096 -1226 c275 -148 328 -486 109 -699 -133 -128 -340 -157 -510 -70 -52 27 -138 116 -173 181 -81 150 -54 356 67 492 88 101 181 137 338 133 98 -2 109 -5 169 -37z" fill="#ffffff"/>
<path d="M3510 5491 c-36 -16 -90 -43 -120 -61 -30 -18 -149 -85 -265 -148 -463 -253 -552 -331 -584 -507 -7 -38 -13 -395 -16 -965 -4 -498 -9 -962 -13 -1032 l-7 -126 -75 -49 c-134 -88 -216 -196 -271 -358 -20 -59 -24 -89 -24 -190 0 -105 4 -131 29 -208 49 -150 132 -255 272 -347 114 -74 190 -95 349 -95 154 0 224 19 344 93 187 115 294 297 308 522 7 114 -14 213 -72 335 -44 93 -149 205 -238 255 -39 22 -59 40 -64 58 -3 14 -3 199 1 411 3 212 8 593 11 846 3 253 8 487 11 520 11 120 38 156 253 340 51 44 113 97 137 119 58 50 100 55 235 26 110 -23 288 -66 310 -75 11 -4 14 21 14 132 0 164 13 216 79 318 25 39 46 73 46 77 0 6 -136 40 -439 108 -74 16 -137 30 -140 30 -4 -1 -35 -13 -71 -29z m-538 -3048 c85 -40 158 -115 206 -212 35 -72 37 -79 37 -176 0 -99 -1 -104 -40 -180 -50 -99 -116 -167 -197 -205 -128 -59 -264 -59 -383 -1 -88 44 -166 126 -204 212 -30 69 -45 179 -32 239 26 123 114 251 208 307 68 39 135 53 244 49 82 -2 106 -7 161 -33z" fill="#ffffff"/>
<path d="M4690 5486 c-25 -7 -58 -19 -74 -28 -43 -22 -257 -258 -291 -320 -27 -47 -30 -62 -29 -133 0 -65 8 -105 43 -214 86 -271 120 -304 387 -366 269 -63 320 -50 482 117 125 128 158 169 188 233 32 68 30 119 -11 266 -96 341 -136 378 -475 440 -121 22 -157 23 -220 5z" fill="#ffffff"/>
<path d="M8225 5151 c-84 -24 -198 -87 -262 -145 -65 -59 -157 -194 -185 -273 -12 -32 -24 -87 -27 -122 l-6 -64 -195 -111 c-107 -62 -314 -180 -460 -263 -387 -220 -516 -294 -697 -400 -318 -184 -335 -187 -566 -97 -48 19 -129 46 -180 61 -113 31 -152 54 -176 102 -10 20 -44 126 -76 236 -32 110 -59 201 -60 203 -2 2 -24 -13 -51 -33 -130 -99 -323 -150 -442 -116 -17 5 -32 9 -32 7 0 -11 152 -531 163 -557 8 -19 33 -51 55 -70 52 -44 753 -453 835 -486 76 -31 186 -41 254 -23 56 15 161 66 236 114 240 153 1530 888 1585 903 10 2 49 -17 92 -45 123 -81 194 -104 335 -110 88 -3 138 0 188 12 295 69 526 378 503 674 -8 102 -23 155 -67 247 -46 95 -122 192 -187 240 -65 48 -176 103 -242 120 -77 21 -258 18 -335 -4z m256 -211 c187 -35 336 -203 347 -391 3 -43 -1 -100 -8 -131 -29 -124 -124 -243 -237 -296 -53 -25 -68 -27 -183 -27 -120 0 -128 1 -193 32 -164 78 -266 269 -239 446 14 87 51 161 116 233 103 114 246 162 397 134z" fill="#ffffff"/>
<path d="M1782 4597 c-190 -98 -284 -213 -312 -382 -12 -74 -20 -929 -10 -1080 16 -241 87 -380 243 -473 87 -53 218 -106 262 -106 l40 -1 7 105 c3 58 11 310 18 560 6 250 16 633 22 850 13 464 13 441 -7 479 -44 86 -152 105 -263 48z" fill="#ffffff"/>
<path d="M4108 4551 c-7 -10 -92 -103 -188 -205 -96 -103 -184 -201 -194 -218 -18 -28 -20 -62 -29 -437 -14 -580 -3 -666 101 -798 49 -61 112 -106 282 -198 320 -174 1085 -618 1360 -790 69 -43 142 -85 163 -95 l38 -17 4 -109 c6 -184 40 -284 140 -412 85 -109 172 -171 295 -211 131 -42 275 -44 414 -6 263 73 456 335 456 621 0 183 -62 334 -190 465 -124 126 -279 190 -465 191 -114 0 -198 -18 -289 -63 l-59 -29 -41 23 c-22 13 -115 68 -206 122 -223 132 -774 455 -993 582 -299 172 -371 224 -403 286 -16 30 -114 494 -114 538 0 34 59 110 211 271 65 69 119 131 119 136 0 5 -12 13 -27 16 -43 11 -144 65 -190 103 -51 41 -123 140 -149 205 -21 53 -27 57 -46 29z m2376 -2484 c185 -88 285 -300 230 -488 -40 -137 -133 -248 -242 -289 -183 -69 -357 -36 -485 91 -70 70 -103 139 -117 242 -30 214 80 388 300 473 24 9 68 13 136 11 92 -3 108 -7 178 -40z" fill="#ffffff"/>
<path d="M8085 3537 c-250 -140 -508 -282 -640 -353 -49 -26 -202 -111 -340 -187 -137 -77 -299 -166 -360 -198 -142 -76 -155 -91 -155 -176 0 -104 46 -156 203 -227 187 -86 327 -75 524 41 38 22 158 91 268 153 573 323 687 403 760 535 18 33 40 84 49 114 25 87 19 257 -15 384 -16 62 -43 54 -294 -86z" fill="#ffffff"/>
<path d="M3732 2295 c-58 -27 -98 -72 -113 -128 -14 -50 -5 -201 17 -285 27 -104 117 -224 211 -280 21 -13 110 -66 198 -119 226 -136 596 -348 674 -387 214 -107 359 -113 542 -20 91 45 239 166 239 195 0 17 -76 68 -323 216 -144 86 -293 177 -332 201 -76 49 -374 231 -580 353 -120 72 -230 139 -376 230 -76 48 -99 51 -157 24z" fill="#ffffff"/>
</g>
</svg>